# xmcd CD database file
#
# Track frame offsets:
#	150
#	17695
#	36038
#	41663
#	68270
#	92151
#	100503
#	126142
#	142949
#	156969
#	161696
#
# Disc length: 2395 seconds
#
# Revision: 0
# Processed by: cddbd v1.5.2PL0 Copyright (c) Steve Scherf et al.
# Submitted via: CDex 1.70beta2
#
DISCID=7f09590b
DTITLE=Andreas Vollenweider - Dancing with the lion
DYEAR=1900
DGENRE=New Age
TTITLE0=01 - Andreas Vollenweider - Unto The Burning Circle
TTITLE1=02 - Andreas Vollenweider - Dancing With The Lion
TTITLE2=03 - Andreas Vollenweider - Hippolyte
TTITLE3=04 - Andreas Vollenweider - Dance Of The Masks
TTITLE4=05 - Andreas Vollenweider - Pearls and Tears
TTITLE5=06 - Andreas Vollenweider - Garden Of My Childhood
TTITLE6=07 - Andreas Vollenweider - Still Life
TTITLE7=08 - Andreas Vollenweider - And The Long Shadows
TTITLE8=09 - Andreas Vollenweider - See, My Love...
TTITLE9=10 - Andreas Vollenweider - Silver Dew, Golden Grass
TTITLE10=11 - Andreas Vollenweider - Ascent From The Circle
EXTD=
EXTT0=
EXTT1=
EXTT2=
EXTT3=
EXTT4=
EXTT5=
EXTT6=
EXTT7=
EXTT8=
EXTT9=
EXTT10=
PLAYORDER=
